<mxfile host="app.diagrams.net" agent="Mozilla/5.0 (Windows NT 10.0; Win64; x64) AppleWebKit/537.36 (KHTML, like Gecko) Chrome/131.0.0.0 Safari/537.36" version="24.8.9">
  <diagram name="Seite-1" id="govlxSCJiovlUbDnaqP7">
    <mxGraphModel dx="1194" dy="708" grid="1" gridSize="10" guides="1" tooltips="1" connect="1" arrows="1" fold="1" page="1" pageScale="1" pageWidth="827" pageHeight="1169" math="0" shadow="0">
      <root>
        <mxCell id="0" />
        <mxCell id="1" parent="0" />
        <mxCell id="bgipiIQPvpwZCUwdCyEf-1" value="" style="rounded=0;whiteSpace=wrap;html=1;" vertex="1" parent="1">
          <mxGeometry x="410" y="180" width="800" height="500" as="geometry" />
        </mxCell>
        <mxCell id="bgipiIQPvpwZCUwdCyEf-2" value="" style="ellipse;whiteSpace=wrap;html=1;aspect=fixed;" vertex="1" parent="1">
          <mxGeometry x="740" y="520" width="80" height="80" as="geometry" />
        </mxCell>
        <mxCell id="bgipiIQPvpwZCUwdCyEf-3" value="" style="shape=cylinder3;whiteSpace=wrap;html=1;boundedLbl=1;backgroundOutline=1;size=15;" vertex="1" parent="1">
          <mxGeometry x="980" y="240" width="150" height="360" as="geometry" />
        </mxCell>
        <mxCell id="bgipiIQPvpwZCUwdCyEf-4" value="" style="ellipse;whiteSpace=wrap;html=1;aspect=fixed;" vertex="1" parent="1">
          <mxGeometry x="660" y="240" width="80" height="80" as="geometry" />
        </mxCell>
        <mxCell id="bgipiIQPvpwZCUwdCyEf-5" value="" style="ellipse;whiteSpace=wrap;html=1;aspect=fixed;" vertex="1" parent="1">
          <mxGeometry x="490" y="440" width="80" height="80" as="geometry" />
        </mxCell>
        <mxCell id="bgipiIQPvpwZCUwdCyEf-7" value="" style="shape=cube;whiteSpace=wrap;html=1;boundedLbl=1;backgroundOutline=1;darkOpacity=0.05;darkOpacity2=0.1;rotation=0;" vertex="1" parent="1">
          <mxGeometry x="590" y="440" width="40" height="80" as="geometry" />
        </mxCell>
        <mxCell id="bgipiIQPvpwZCUwdCyEf-8" value="" style="endArrow=none;html=1;rounded=0;entryX=1;entryY=0.194;entryDx=0;entryDy=0;entryPerimeter=0;exitX=-0.001;exitY=0.192;exitDx=0;exitDy=0;exitPerimeter=0;" edge="1" parent="1">
          <mxGeometry width="50" height="50" relative="1" as="geometry">
            <mxPoint x="410.00000000000006" y="240" as="sourcePoint" />
            <mxPoint x="1210.8" y="241" as="targetPoint" />
          </mxGeometry>
        </mxCell>
        <mxCell id="bgipiIQPvpwZCUwdCyEf-9" value="" style="endArrow=none;html=1;rounded=0;entryX=1;entryY=0.194;entryDx=0;entryDy=0;entryPerimeter=0;exitX=-0.001;exitY=0.192;exitDx=0;exitDy=0;exitPerimeter=0;" edge="1" parent="1">
          <mxGeometry width="50" height="50" relative="1" as="geometry">
            <mxPoint x="410.00000000000006" y="320" as="sourcePoint" />
            <mxPoint x="1210.8" y="321" as="targetPoint" />
          </mxGeometry>
        </mxCell>
        <mxCell id="bgipiIQPvpwZCUwdCyEf-10" value="" style="endArrow=none;html=1;rounded=0;entryX=1;entryY=0.194;entryDx=0;entryDy=0;entryPerimeter=0;exitX=-0.001;exitY=0.192;exitDx=0;exitDy=0;exitPerimeter=0;" edge="1" parent="1">
          <mxGeometry width="50" height="50" relative="1" as="geometry">
            <mxPoint x="410.00000000000006" y="380" as="sourcePoint" />
            <mxPoint x="1210.8" y="381" as="targetPoint" />
          </mxGeometry>
        </mxCell>
        <mxCell id="bgipiIQPvpwZCUwdCyEf-11" value="" style="endArrow=none;html=1;rounded=0;entryX=1;entryY=0.194;entryDx=0;entryDy=0;entryPerimeter=0;exitX=-0.001;exitY=0.192;exitDx=0;exitDy=0;exitPerimeter=0;" edge="1" parent="1">
          <mxGeometry width="50" height="50" relative="1" as="geometry">
            <mxPoint x="414.00000000000006" y="440" as="sourcePoint" />
            <mxPoint x="1214.8" y="441" as="targetPoint" />
          </mxGeometry>
        </mxCell>
        <mxCell id="bgipiIQPvpwZCUwdCyEf-12" value="" style="endArrow=none;html=1;rounded=0;entryX=1;entryY=0.194;entryDx=0;entryDy=0;entryPerimeter=0;exitX=-0.001;exitY=0.192;exitDx=0;exitDy=0;exitPerimeter=0;" edge="1" parent="1">
          <mxGeometry width="50" height="50" relative="1" as="geometry">
            <mxPoint x="414.00000000000006" y="519" as="sourcePoint" />
            <mxPoint x="1214.8" y="520" as="targetPoint" />
          </mxGeometry>
        </mxCell>
        <mxCell id="bgipiIQPvpwZCUwdCyEf-13" value="" style="endArrow=none;html=1;rounded=0;entryX=1;entryY=0.194;entryDx=0;entryDy=0;entryPerimeter=0;exitX=-0.001;exitY=0.192;exitDx=0;exitDy=0;exitPerimeter=0;" edge="1" parent="1">
          <mxGeometry width="50" height="50" relative="1" as="geometry">
            <mxPoint x="409.20000000000005" y="600" as="sourcePoint" />
            <mxPoint x="1210" y="601" as="targetPoint" />
          </mxGeometry>
        </mxCell>
        <mxCell id="bgipiIQPvpwZCUwdCyEf-15" value="" style="endArrow=none;html=1;rounded=0;" edge="1" parent="1">
          <mxGeometry width="50" height="50" relative="1" as="geometry">
            <mxPoint x="489" y="680" as="sourcePoint" />
            <mxPoint x="489" y="180" as="targetPoint" />
          </mxGeometry>
        </mxCell>
        <mxCell id="bgipiIQPvpwZCUwdCyEf-16" value="" style="endArrow=none;html=1;rounded=0;" edge="1" parent="1">
          <mxGeometry width="50" height="50" relative="1" as="geometry">
            <mxPoint x="580" y="680" as="sourcePoint" />
            <mxPoint x="580" y="180" as="targetPoint" />
          </mxGeometry>
        </mxCell>
        <mxCell id="bgipiIQPvpwZCUwdCyEf-17" value="" style="endArrow=none;html=1;rounded=0;" edge="1" parent="1">
          <mxGeometry width="50" height="50" relative="1" as="geometry">
            <mxPoint x="660" y="680" as="sourcePoint" />
            <mxPoint x="660" y="180" as="targetPoint" />
          </mxGeometry>
        </mxCell>
        <mxCell id="bgipiIQPvpwZCUwdCyEf-18" value="" style="endArrow=none;html=1;rounded=0;" edge="1" parent="1">
          <mxGeometry width="50" height="50" relative="1" as="geometry">
            <mxPoint x="740" y="680" as="sourcePoint" />
            <mxPoint x="740" y="180" as="targetPoint" />
          </mxGeometry>
        </mxCell>
        <mxCell id="bgipiIQPvpwZCUwdCyEf-19" value="" style="endArrow=none;html=1;rounded=0;" edge="1" parent="1">
          <mxGeometry width="50" height="50" relative="1" as="geometry">
            <mxPoint x="820" y="680" as="sourcePoint" />
            <mxPoint x="820" y="180" as="targetPoint" />
          </mxGeometry>
        </mxCell>
        <mxCell id="bgipiIQPvpwZCUwdCyEf-20" value="" style="endArrow=none;html=1;rounded=0;" edge="1" parent="1">
          <mxGeometry width="50" height="50" relative="1" as="geometry">
            <mxPoint x="900" y="680" as="sourcePoint" />
            <mxPoint x="900" y="180" as="targetPoint" />
          </mxGeometry>
        </mxCell>
        <mxCell id="bgipiIQPvpwZCUwdCyEf-21" value="" style="endArrow=none;html=1;rounded=0;" edge="1" parent="1">
          <mxGeometry width="50" height="50" relative="1" as="geometry">
            <mxPoint x="980" y="680" as="sourcePoint" />
            <mxPoint x="980" y="180" as="targetPoint" />
          </mxGeometry>
        </mxCell>
        <mxCell id="bgipiIQPvpwZCUwdCyEf-22" value="" style="endArrow=none;html=1;rounded=0;" edge="1" parent="1">
          <mxGeometry width="50" height="50" relative="1" as="geometry">
            <mxPoint x="1060" y="680" as="sourcePoint" />
            <mxPoint x="1060" y="180" as="targetPoint" />
          </mxGeometry>
        </mxCell>
        <mxCell id="bgipiIQPvpwZCUwdCyEf-23" value="" style="endArrow=none;html=1;rounded=0;" edge="1" parent="1">
          <mxGeometry width="50" height="50" relative="1" as="geometry">
            <mxPoint x="1130" y="680" as="sourcePoint" />
            <mxPoint x="1130" y="180" as="targetPoint" />
          </mxGeometry>
        </mxCell>
        <mxCell id="bgipiIQPvpwZCUwdCyEf-25" value="00" style="text;html=1;align=center;verticalAlign=middle;resizable=0;points=[];autosize=1;strokeColor=none;fillColor=none;" vertex="1" parent="1">
          <mxGeometry x="430" y="200" width="40" height="30" as="geometry" />
        </mxCell>
        <mxCell id="bgipiIQPvpwZCUwdCyEf-26" value="9/6" style="text;html=1;align=center;verticalAlign=middle;resizable=0;points=[];autosize=1;strokeColor=none;fillColor=none;" vertex="1" parent="1">
          <mxGeometry x="1150" y="630" width="40" height="30" as="geometry" />
        </mxCell>
        <mxCell id="bgipiIQPvpwZCUwdCyEf-27" value="3/2" style="text;html=1;align=center;verticalAlign=middle;resizable=0;points=[];autosize=1;strokeColor=none;fillColor=none;" vertex="1" parent="1">
          <mxGeometry x="680" y="265" width="40" height="30" as="geometry" />
        </mxCell>
        <mxCell id="bgipiIQPvpwZCUwdCyEf-29" value="1/4" style="text;html=1;align=center;verticalAlign=middle;resizable=0;points=[];autosize=1;strokeColor=none;fillColor=none;" vertex="1" parent="1">
          <mxGeometry x="510" y="465" width="40" height="30" as="geometry" />
        </mxCell>
        <mxCell id="bgipiIQPvpwZCUwdCyEf-30" value="2/4" style="text;html=1;align=center;verticalAlign=middle;resizable=0;points=[];autosize=1;strokeColor=none;fillColor=none;" vertex="1" parent="1">
          <mxGeometry x="620" y="465" width="40" height="30" as="geometry" />
        </mxCell>
        <mxCell id="bgipiIQPvpwZCUwdCyEf-31" value="4/5" style="text;html=1;align=center;verticalAlign=middle;resizable=0;points=[];autosize=1;strokeColor=none;fillColor=none;" vertex="1" parent="1">
          <mxGeometry x="760" y="545" width="40" height="30" as="geometry" />
        </mxCell>
        <mxCell id="bgipiIQPvpwZCUwdCyEf-32" value="7/1" style="text;html=1;align=center;verticalAlign=middle;resizable=0;points=[];autosize=1;strokeColor=none;fillColor=none;" vertex="1" parent="1">
          <mxGeometry x="1000" y="265" width="40" height="30" as="geometry" />
        </mxCell>
        <mxCell id="bgipiIQPvpwZCUwdCyEf-33" value="5" style="text;html=1;align=center;verticalAlign=middle;resizable=0;points=[];autosize=1;strokeColor=none;fillColor=none;" vertex="1" parent="1">
          <mxGeometry x="1005" y="340" width="30" height="30" as="geometry" />
        </mxCell>
        <mxCell id="bgipiIQPvpwZCUwdCyEf-34" value="2" style="text;html=1;align=center;verticalAlign=middle;resizable=0;points=[];autosize=1;strokeColor=none;fillColor=none;" vertex="1" parent="1">
          <mxGeometry x="1080" y="270" width="30" height="30" as="geometry" />
        </mxCell>
      </root>
    </mxGraphModel>
  </diagram>
</mxfile>
